<svg xmlns="http://www.w3.org/2000/svg" width="249" height="197" viewBox="0 0 249 197" version="1.1"><path d="" stroke="none" fill="#289cac" fill-rule="evenodd"/><path d="M 119.359 13.141 C 116.687 17.315, 112.700 24.278, 110.500 28.615 C 108.300 32.952, 106.413 36.662, 106.306 36.861 C 106.199 37.059, 102.017 34.626, 97.013 31.454 C 91.359 27.870, 87.560 26.040, 86.978 26.622 C 86.463 27.137, 85.038 32.777, 83.811 39.155 L 81.580 50.752 75.040 48.290 C 68.876 45.970, 51.557 41.008, 49.602 41.003 C 48.457 40.999, 49.508 54.909, 51.536 66.576 C 57.974 103.626, 77.581 122.791, 104.183 118.037 C 110.308 116.942, 111.482 117.001, 114.785 118.569 C 119.999 121.044, 128.563 120.874, 134.117 118.186 C 137.916 116.346, 139.113 116.192, 142.452 117.114 C 144.596 117.706, 149.984 118.026, 154.425 117.825 C 168.109 117.204, 177.743 111.381, 186.059 98.702 C 193.760 86.960, 197.622 73.057, 200.532 46.602 L 201.181 40.703 196.452 41.352 C 193.851 41.708, 186.339 43.800, 179.758 46 C 173.178 48.200, 167.666 50, 167.509 50 C 167.351 50, 166.945 48.313, 166.606 46.250 C 164.907 35.908, 162.443 26, 161.570 26 C 161.031 26, 156.607 28.525, 151.739 31.611 C 146.871 34.697, 142.756 37.059, 142.594 36.861 C 142.432 36.662, 140.834 33.575, 139.043 30 C 134.834 21.599, 128.681 11.062, 126.183 7.978 L 124.219 5.552 119.359 13.141 M 120.620 15.250 C 118.775 18.138, 115.201 24.515, 112.677 29.423 L 108.087 38.346 116.284 46.031 L 124.480 53.716 132.631 46.114 L 140.783 38.512 137.899 32.800 C 134.216 25.503, 125.070 10, 124.449 10 C 124.188 10, 122.466 12.362, 120.620 15.250 M 87.163 33.734 C 84.777 44.998, 83.919 51.311, 84.682 51.974 C 85.132 52.364, 88.537 54.321, 92.250 56.323 C 96.980 58.873, 99 59.542, 99 58.559 C 99 57.787, 100.319 53.278, 101.931 48.538 L 104.863 39.920 100.181 36.512 C 97.607 34.638, 93.851 32.174, 91.836 31.037 L 88.172 28.969 87.163 33.734 M 152 34.001 C 147.875 36.701, 144.515 39.493, 144.534 40.205 C 144.553 40.917, 145.866 45.572, 147.451 50.548 L 150.334 59.596 157.683 55.548 C 164.966 51.537, 165.028 51.468, 164.485 48 C 163.269 40.236, 160.674 29.003, 160.105 29.046 C 159.772 29.071, 156.125 31.301, 152 34.001 M 133.738 48.095 L 125.977 55.183 128.834 58.841 C 130.405 60.854, 132.898 64.586, 134.373 67.136 L 137.056 71.772 142.641 66.319 L 148.225 60.867 145.077 50.934 C 143.345 45.470, 141.831 41.002, 141.714 41.003 C 141.596 41.005, 138.007 44.196, 133.738 48.095 M 105.140 46.194 C 104.130 48.562, 102.733 52.893, 102.036 55.817 L 100.768 61.134 106.134 66.021 C 109.085 68.710, 111.725 70.929, 112 70.954 C 112.275 70.978, 113.742 68.861, 115.260 66.249 C 116.778 63.637, 119.161 60.085, 120.556 58.356 L 123.093 55.211 116.468 49.356 C 107.135 41.106, 107.292 41.150, 105.140 46.194 M 185.120 46.587 C 178.861 48.510, 172.448 50.751, 170.870 51.567 L 168 53.051 168 64.866 C 168 78.136, 165.698 89.452, 161.582 96.414 C 158.115 102.279, 151.287 108.803, 145.500 111.781 L 140.500 114.355 144.500 115.258 C 146.700 115.755, 151.625 115.919, 155.444 115.623 C 172.275 114.316, 184.610 102.655, 191.912 81.145 C 195.775 69.766, 199.538 42.906, 197.250 43.046 C 196.838 43.071, 191.379 44.665, 185.120 46.587 M 51.462 47.750 C 51.730 49.813, 52.465 55.550, 53.097 60.500 C 57.563 95.515, 73.325 115.934, 96.070 116.170 C 99.684 116.207, 104.150 115.906, 105.994 115.501 L 109.347 114.765 103.937 112.193 C 88.536 104.874, 81 89.340, 81 64.912 L 81 53.144 75.282 51.004 C 69.222 48.737, 53.393 44, 51.876 44 C 51.381 44, 51.195 45.688, 51.462 47.750 M 157.977 57.885 L 151.500 61.826 151.817 68.476 C 152.247 77.478, 150.464 88.144, 147.472 94.467 C 146.112 97.341, 145 100.677, 145 101.879 C 145 103.081, 144.348 105.624, 143.551 107.531 L 142.103 110.998 145.209 109.392 C 150.416 106.699, 157.835 99.036, 160.491 93.607 C 163.931 86.577, 165.976 76.165, 165.912 66 C 165.833 53.273, 165.730 53.168, 157.977 57.885 M 83.607 56.582 C 82.656 59.060, 82.909 71.837, 84.052 79 C 85.958 90.956, 93.568 103.426, 101.950 108.330 L 105.078 110.159 104.446 107.330 C 103.177 101.648, 102.755 100.409, 100.419 95.500 C 97.266 88.875, 95.873 78.339, 96.985 69.515 C 97.468 65.674, 97.782 62.459, 97.682 62.371 C 96.762 61.562, 85.348 55.005, 84.857 55.003 C 84.503 55.001, 83.941 55.712, 83.607 56.582 M 120.944 62.212 C 110.508 76.541, 108.665 87.035, 114.389 99.539 C 115.699 102.400, 118.467 106.619, 120.542 108.914 L 124.313 113.089 127.585 109.918 C 135.934 101.826, 139.597 89.004, 136.552 78.530 C 135.054 73.377, 127.255 59.893, 124.947 58.467 C 124.463 58.168, 122.662 59.853, 120.944 62.212 M 99.450 67.414 C 98.355 73.251, 99.496 87.072, 101.439 91.500 L 103.193 95.500 104.639 90 C 105.434 86.975, 107.143 82.187, 108.436 79.361 L 110.788 74.222 105.466 68.967 L 100.145 63.711 99.450 67.414 M 143.665 68.489 C 138.235 73.923, 138.271 73.203, 142.821 85.500 L 145.781 93.500 147.429 87.860 C 148.571 83.955, 148.989 79.363, 148.789 72.935 L 148.500 63.649 143.665 68.489 M 107.081 89.296 C 102.479 105.449, 109.759 117.940, 123.800 117.984 C 138.477 118.029, 145.637 106.822, 141.808 89.799 L 140.616 84.500 139.822 90.423 C 139.386 93.681, 137.842 98.615, 136.392 101.389 C 133.250 107.397, 126.202 116, 124.421 116 C 122.538 116, 115.313 107.218, 112.471 101.473 C 111.103 98.709, 109.638 93.759, 109.216 90.473 L 108.447 84.500 107.081 89.296 M 7.633 135.853 C 6.162 137.478, 5.990 140.142, 6.228 157.590 L 6.500 177.475 9.158 178.748 C 12.005 180.111, 16.719 179.039, 18.214 176.687 C 18.630 176.034, 18.976 171.760, 18.985 167.190 L 19 158.879 15.327 159.190 C 10.695 159.581, 9.518 162, 13.960 162 L 17.088 162 16.794 169.139 C 16.544 175.218, 16.203 176.386, 14.500 177.009 C 13.400 177.411, 11.488 177.363, 10.250 176.902 C 8.026 176.074, 8 175.847, 8 157.232 C 8 137.470, 8.312 136, 12.500 136 C 15.076 136, 17 137.796, 17 140.200 C 17 141.190, 17.633 142, 18.406 142 C 20.131 142, 19.421 138.313, 17.204 135.750 C 15.198 133.432, 9.772 133.490, 7.633 135.853 M 69 156.956 C 69 174.366, 69.295 180.068, 70.182 179.773 C 70.959 179.514, 71.277 177.261, 71.111 173.189 C 70.773 164.897, 72.632 164.985, 77.610 173.495 C 79.701 177.070, 81.793 179.607, 82.261 179.139 C 82.730 178.670, 81.512 175.637, 79.554 172.394 C 76.458 167.267, 76.223 166.454, 77.747 166.147 C 82.370 165.215, 83 163.338, 83 150.500 C 83 136.230, 82.336 135.027, 74.010 134.227 L 69 133.746 69 156.956 M 131 140.975 L 131 147.950 128.500 147 C 124.527 145.489, 121.290 147.294, 120.066 151.702 C 118.907 155.874, 118.794 171.038, 119.892 175 C 120.821 178.355, 124.995 180.333, 128.408 179.035 C 130.162 178.368, 131 178.384, 131 179.084 C 131 179.653, 131.450 179.840, 132 179.500 C 132.619 179.118, 133 170.323, 133 156.441 C 133 142.147, 132.637 134, 132 134 C 131.429 134, 131 136.992, 131 140.975 M 191.633 135.853 C 190.162 137.478, 189.990 140.142, 190.228 157.590 L 190.500 177.475 193.121 178.730 C 196.856 180.519, 201.552 178.724, 202.846 175.012 C 203.391 173.449, 203.573 171.907, 203.252 171.585 C 202.014 170.348, 201.121 171.103, 200.816 173.642 C 200.450 176.699, 197.559 178.134, 194.250 176.902 C 192.026 176.074, 192 175.847, 192 157.232 C 192 137.233, 192.278 136, 196.787 136 C 198.521 136, 199.484 136.821, 200.306 139 C 201.635 142.521, 204.091 143.144, 203.265 139.750 C 201.911 134.183, 195.184 131.929, 191.633 135.853 M 206 157.059 C 206 172.177, 206.344 179.905, 207 179.500 C 207.619 179.118, 208 170.323, 208 156.441 C 208 142.147, 207.637 134, 207 134 C 206.362 134, 206 142.353, 206 157.059 M 230.231 156.731 L 230.500 179.461 235.500 179.273 C 243.143 178.985, 244 177.378, 244 163.323 C 244 157.023, 243.523 150.977, 242.939 149.886 C 241.477 147.154, 237.591 145.825, 234.500 147 L 232 147.950 232 140.975 C 232 136.906, 231.576 134, 230.981 134 C 230.312 134, 230.055 141.788, 230.231 156.731 M 23 138.500 C 23 139.875, 23.450 141, 24 141 C 24.550 141, 25 139.875, 25 138.500 C 25 137.125, 24.550 136, 24 136 C 23.450 136, 23 137.125, 23 138.500 M 31.639 136.694 C 31.288 137.046, 31 139.456, 31 142.050 C 31 146.054, 30.660 146.879, 28.750 147.510 L 26.500 148.254 28.750 148.697 C 30.927 149.125, 31 149.512, 31 160.602 C 31 173.925, 32.314 178.445, 36.415 179.229 C 40.207 179.953, 40.714 178.145, 37.075 176.876 L 34 175.804 34 162.402 L 34 149 37 149 C 38.650 149, 40 148.550, 40 148 C 40 147.450, 38.650 147, 37 147 C 34.071 147, 34 146.882, 34 142.059 C 34 137.389, 33.066 135.267, 31.639 136.694 M 137.917 136.191 C 137.234 138.722, 137.590 141, 138.667 141 C 140.214 141, 140.479 137.414, 139 136.500 C 138.450 136.160, 137.963 136.021, 137.917 136.191 M 71 150.500 L 71 164 74.800 164 C 76.890 164, 79.140 163.460, 79.800 162.800 C 81.450 161.150, 81.450 139.850, 79.800 138.200 C 79.140 137.540, 76.890 137, 74.800 137 L 71 137 71 150.500 M 23.750 146.581 C 23.337 146.995, 23 154.773, 23 163.867 C 23 175.164, 23.325 180.075, 24.026 179.374 C 24.666 178.734, 24.948 172.241, 24.776 162.089 C 24.624 153.146, 24.163 146.168, 23.750 146.581 M 45.315 147.016 C 42.974 147.949, 41 150.886, 41 153.434 C 41 155.790, 42.814 155.316, 43.180 152.865 C 43.356 151.690, 44.448 150.103, 45.606 149.338 C 47.447 148.123, 47.987 148.171, 49.887 149.723 C 51.083 150.701, 52.320 153.122, 52.638 155.104 L 53.214 158.708 48.867 159.291 C 42.915 160.089, 40.996 162.673, 41.015 169.861 C 41.033 176.349, 41.561 177.502, 45.138 178.862 C 47.017 179.577, 48.457 179.476, 50.344 178.497 C 51.778 177.752, 52.850 177.449, 52.726 177.822 C 52.602 178.195, 52.950 178.500, 53.500 178.500 C 54.120 178.500, 54.500 173.095, 54.500 164.284 C 54.500 152.948, 54.196 149.779, 53 148.641 C 50.889 146.634, 47.874 145.996, 45.315 147.016 M 89.306 147.020 C 86.033 148.324, 84.749 154.116, 85.150 165.771 C 85.422 173.677, 85.878 176.310, 87.202 177.633 C 89.693 180.121, 94.920 179.818, 97.156 177.056 C 99.136 174.611, 99.639 171, 98 171 C 97.450 171, 97 171.845, 97 172.878 C 97 175.525, 94.600 177.200, 91.350 176.822 C 88.132 176.448, 87.252 174.259, 87.100 166.250 L 87 161 93 161 L 99 161 99 156.111 C 99 148.904, 94.699 144.870, 89.306 147.020 M 106.315 147.016 C 102.991 148.341, 100.226 155, 103 155 C 103.550 155, 104 154.126, 104 153.057 C 104 150.557, 107.546 148.069, 110.141 148.747 C 112.300 149.312, 114 152.698, 114 156.433 C 114 158.386, 113.355 158.823, 109.760 159.305 C 104.127 160.061, 102 162.766, 102 169.177 C 102 177.224, 105.246 180.650, 111.241 178.931 C 113.092 178.400, 114 178.511, 114 179.270 C 114 180.078, 114.307 180.093, 115.078 179.322 C 116.834 177.566, 115.880 150.427, 114 148.640 C 111.889 146.634, 108.873 145.997, 106.315 147.016 M 137.952 146.550 C 137.556 154.424, 138.122 178.627, 138.710 179 C 139.926 179.770, 140.238 147.838, 139.026 146.626 C 138.427 146.027, 137.980 145.995, 137.952 146.550 M 144 162.859 C 144 174.110, 144.348 179.903, 145 179.500 C 145.586 179.138, 146 173.323, 146 165.441 C 146 153.367, 146.202 151.798, 147.985 150.015 C 149.648 148.352, 150.372 148.213, 152.445 149.157 C 155.555 150.574, 156.268 154.707, 155.824 168.752 C 155.580 176.461, 155.810 179.004, 156.750 179.002 C 157.690 179.001, 157.975 175.835, 157.900 166.250 C 157.845 159.238, 157.489 152.375, 157.108 151 C 156.197 147.713, 151.999 145.670, 148.719 146.917 C 147.053 147.550, 145.889 147.489, 145.127 146.727 C 144.291 145.891, 144 150.057, 144 162.859 M 165.375 146.985 C 164.207 147.457, 162.744 149.295, 162.125 151.071 C 160.740 155.044, 160.641 171.925, 161.982 175.453 C 163.208 178.678, 167.093 180.295, 170.500 179 C 172.911 178.083, 173 178.193, 173 182.090 C 173 187.376, 171.514 190, 168.522 190 C 166.086 190, 162.643 186.387, 163.601 184.837 C 163.885 184.377, 163.416 184, 162.559 184 C 161.702 184, 161 184.480, 161 185.066 C 161 186.569, 163.089 190.360, 164.400 191.235 C 166.500 192.637, 171.011 191.989, 173 190 C 174.873 188.127, 175 186.667, 175 167 C 175 153.667, 174.635 146, 174 146 C 173.450 146, 173 146.439, 173 146.975 C 173 147.609, 172.102 147.609, 170.435 146.975 C 169.024 146.439, 167.787 146.029, 167.685 146.063 C 167.583 146.098, 166.544 146.513, 165.375 146.985 M 212.683 146.650 C 211.803 147.531, 211.981 171.711, 212.892 175 C 213.821 178.355, 217.995 180.333, 221.408 179.035 C 223.162 178.368, 224 178.384, 224 179.084 C 224 179.653, 224.450 179.840, 225 179.500 C 225.601 179.129, 226 172.323, 226 162.441 C 226 152.147, 225.626 146, 225 146 C 224.380 146, 224 151.459, 224 160.378 C 224 176.130, 223.553 177.423, 218.310 176.822 L 215.500 176.500 215.221 162.021 C 214.961 148.528, 214.372 144.961, 212.683 146.650 M 89.631 149.319 C 88.770 149.968, 87.769 152.412, 87.406 154.750 L 86.744 159 91.872 159 L 97 159 97 155.691 C 97 150.419, 92.885 146.860, 89.631 149.319 M 123.566 149.328 C 122.178 150.343, 121.978 152.446, 122.218 163.510 L 122.500 176.500 125.310 176.822 C 130.347 177.400, 131 175.880, 131 163.569 C 131 152.188, 130.368 149.925, 126.847 148.708 C 125.938 148.394, 124.461 148.673, 123.566 149.328 M 165.399 149.450 C 163.950 150.509, 163.525 152.577, 163.200 160.132 C 162.676 172.336, 163.689 176.392, 167.368 176.822 C 172.341 177.404, 173 175.853, 173 163.569 C 173 152.188, 172.368 149.925, 168.847 148.708 C 167.938 148.394, 166.386 148.728, 165.399 149.450 M 234.347 149.486 C 232.799 150.617, 232.447 152.511, 232.172 161.168 C 231.778 173.604, 232.765 177, 236.775 177 C 238.329 177, 240.140 176.460, 240.800 175.800 C 242.483 174.117, 242.441 152.929, 240.750 150.831 C 238.869 148.496, 236.410 147.980, 234.347 149.486 M 47.500 161.724 C 43.869 162.616, 43 164.130, 43 169.566 C 43 173.809, 43.418 175.180, 45.065 176.333 C 49.871 179.699, 53 175.796, 53 166.435 C 53 160.692, 52.709 160.443, 47.500 161.724 M 108.500 161.700 C 105.431 162.419, 104 164.959, 104 169.691 C 104 176.773, 108.957 179.876, 112.750 175.169 C 113.454 174.295, 114 170.862, 114 167.309 C 114 160.610, 113.843 160.449, 108.500 161.700" stroke="none" fill="#249cac" fill-rule="evenodd"/></svg>