<svg xmlns="http://www.w3.org/2000/svg" width="500" height="396" viewBox="0 0 500 396" version="1.1"><path d="" stroke="none" fill="#24a4ac" fill-rule="evenodd"/><path d="M 241.579 22.477 C 237.411 28.790, 234 34.267, 234 34.648 C 234 35.030, 233.371 36.053, 232.603 36.921 C 229.957 39.911, 214 70.537, 214 72.625 C 214 74.995, 212.229 74.199, 201.515 67.010 C 195.785 63.166, 189.387 59.064, 187.298 57.896 C 185.209 56.728, 181.645 54.689, 179.378 53.366 L 175.256 50.960 173.628 53.445 C 172.733 54.811, 172 57.205, 172 58.765 C 172 60.324, 171.596 62.028, 171.102 62.550 C 170.609 63.072, 169.963 65.300, 169.667 67.500 C 169.371 69.700, 168.621 73.750, 167.999 76.500 C 167.378 79.250, 166.471 84.200, 165.985 87.500 C 164.223 99.456, 163.486 102.521, 162.677 101.250 C 162.240 100.563, 160.784 100, 159.441 100 C 158.098 100, 157 99.550, 157 99 C 157 98.450, 156.127 98, 155.059 98 C 153.991 98, 152.840 97.550, 152.500 97 C 152.160 96.450, 150.810 96, 149.500 96 C 148.190 96, 146.840 95.550, 146.500 95 C 146.160 94.450, 144.810 94, 143.500 94 C 142.190 94, 140.840 93.550, 140.500 93 C 140.160 92.450, 138.810 92, 137.500 92 C 136.190 92, 134.840 91.550, 134.500 91 C 134.160 90.450, 132.810 90, 131.500 90 C 130.190 90, 128.840 89.550, 128.500 89 C 128.160 88.450, 126.360 88, 124.500 88 C 122.640 88, 120.840 87.550, 120.500 87 C 120.160 86.450, 118.360 86, 116.500 86 C 114.640 86, 112.840 85.550, 112.500 85 C 112.160 84.450, 110.360 84, 108.500 84 C 106.640 84, 104.840 83.550, 104.500 83 C 104.160 82.450, 102.507 82, 100.828 82 L 97.773 82 98.340 92.250 C 98.874 101.891, 100.239 115.102, 101.519 123 C 101.831 124.925, 102.545 129.425, 103.105 133 C 105.062 145.469, 110.580 165.984, 114.671 176 C 122.110 194.210, 134.991 213.783, 144.468 221.277 C 150.594 226.121, 159.676 232, 161.033 232 C 161.580 232, 162.921 232.450, 164.014 233 C 165.106 233.550, 166.894 234.450, 167.986 235 C 169.079 235.550, 170.852 236, 171.927 236 C 173.002 236, 174.125 236.394, 174.423 236.875 C 176.224 239.790, 215 239.909, 215 236.999 C 215 235.480, 224.284 234.948, 225.917 236.374 C 229.724 239.697, 240.314 242.336, 249.712 242.305 C 259.345 242.272, 261.529 241.723, 271.703 236.769 C 278.127 233.641, 278.272 233.636, 287.500 236.202 C 292.995 237.730, 320.988 238.412, 322.348 237.052 C 322.927 236.473, 324.633 236, 326.141 236 C 327.649 236, 329.160 235.550, 329.500 235 C 329.840 234.450, 330.879 234.004, 331.809 234.008 C 332.739 234.013, 337.314 232.100, 341.976 229.758 C 354.737 223.348, 368.835 208.817, 377.827 192.809 C 381.101 186.979, 381.757 185.678, 383.525 181.500 C 384.456 179.300, 385.844 176.193, 386.609 174.596 C 387.374 172.999, 388 170.888, 388 169.905 C 388 168.922, 388.396 167.873, 388.881 167.574 C 389.365 167.274, 390.060 165.785, 390.425 164.265 C 391.168 161.171, 392.611 155.388, 394.046 149.750 C 394.571 147.688, 395.484 144.088, 396.076 141.750 C 398.038 134.002, 400.507 116.848, 401.941 101 C 402.463 95.225, 403.200 88.588, 403.577 86.250 L 404.263 82 399.453 82 C 396.807 82, 393.260 82.420, 391.571 82.932 C 389.882 83.445, 386.475 84.380, 384 85.011 C 375.786 87.104, 365.524 90.193, 363.764 91.103 C 362.809 91.596, 361.340 92, 360.500 92 C 359.660 92, 358.191 92.429, 357.236 92.953 C 356.281 93.477, 352.575 94.884, 349 96.079 C 345.425 97.275, 342.050 98.581, 341.500 98.982 C 340.950 99.383, 339.537 99.946, 338.361 100.233 C 336.017 100.805, 335.847 100.293, 333.951 87 C 332.979 80.183, 331.857 74.515, 329.993 67 C 329.379 64.525, 328.655 61.150, 328.384 59.500 C 327.280 52.774, 326.937 52, 325.060 52 C 322.776 52, 309.859 59.354, 297.247 67.834 C 292.203 71.225, 287.722 73.996, 287.288 73.992 C 286.361 73.983, 284 69.180, 284 67.301 C 284 66.585, 283.550 66, 283 66 C 282.450 66, 282 65.190, 282 64.200 C 282 63.210, 281.581 61.972, 281.069 61.450 C 280.557 60.927, 278.025 56.450, 275.442 51.500 C 272.859 46.550, 270.226 41.825, 269.591 41 C 268.956 40.175, 267.354 37.475, 266.032 35 C 262.339 28.090, 250.911 11, 249.983 11 C 249.529 11, 245.747 16.165, 241.579 22.477 M 247.502 23.250 C 245.760 25.712, 242.373 31.162, 236.691 40.642 C 231.952 48.551, 218 76.056, 218 77.491 C 218 78.095, 220.363 80.366, 223.250 82.538 C 226.137 84.709, 233.330 91.166, 239.234 96.886 L 249.967 107.285 260.403 97.234 C 266.143 91.705, 273.350 85.327, 276.419 83.060 C 279.489 80.792, 282 78.509, 282 77.987 C 282 73.417, 252.487 21, 249.914 21 C 249.463 21, 248.377 22.012, 247.502 23.250 M 176.124 64.750 C 175.467 67.912, 174.532 72.300, 174.046 74.500 C 173.086 78.845, 171.797 85.709, 169.966 96.219 C 168.961 101.985, 169.012 103.155, 170.326 104.469 C 171.168 105.311, 172.564 106, 173.429 106 C 174.293 106, 175 106.450, 175 107 C 175 107.550, 175.900 108, 177 108 C 178.100 108, 179 108.450, 179 109 C 179 109.550, 179.900 110, 181 110 C 182.100 110, 183 110.398, 183 110.883 C 183 111.369, 183.787 112.016, 184.750 112.322 C 186.463 112.865, 192.011 116.011, 193 117 C 193.275 117.275, 194.512 118.066, 195.750 118.758 C 197.892 119.956, 198 119.851, 198 116.567 C 198 114.670, 198.450 112.840, 199 112.500 C 199.550 112.160, 200 110.810, 200 109.500 C 200 108.190, 200.450 106.840, 201 106.500 C 201.550 106.160, 202 104.572, 202 102.971 C 202 101.371, 202.900 98.458, 204 96.500 C 205.100 94.542, 206 92.272, 206 91.456 C 206 90.640, 206.397 89.191, 206.883 88.236 C 210.353 81.415, 210.404 81.105, 208.414 78.890 C 205.798 75.980, 179.844 59.071, 177.909 59.017 C 177.584 59.008, 176.781 61.587, 176.124 64.750 M 316.500 62 C 314.300 63.605, 312.147 64.937, 311.717 64.959 C 311.286 64.982, 306.223 68.160, 300.467 72.022 C 293.692 76.568, 290 79.676, 290 80.835 C 290 81.819, 290.900 84.487, 292 86.764 C 293.100 89.041, 294 91.799, 294 92.893 C 294 93.987, 294.450 95.160, 295 95.500 C 295.550 95.840, 296 97.190, 296 98.500 C 296 99.810, 296.450 101.160, 297 101.500 C 297.550 101.840, 298 103.190, 298 104.500 C 298 105.810, 298.450 107.160, 299 107.500 C 299.550 107.840, 300 109.640, 300 111.500 C 300 113.360, 300.450 115.160, 301 115.500 C 301.550 115.840, 302.007 117.104, 302.015 118.309 C 302.024 119.514, 302.361 120.050, 302.765 119.500 C 303.169 118.950, 304.400 118.008, 305.500 117.406 C 310.366 114.745, 312.535 113.464, 313 112.976 C 313.275 112.687, 317.438 110.485, 322.250 108.081 C 331.729 103.346, 331.653 103.471, 330.051 95.326 C 329.529 92.672, 328.621 87.800, 328.033 84.500 C 325.822 72.087, 322.464 59.002, 321.500 59.041 C 320.950 59.064, 318.700 60.395, 316.500 62 M 213.530 87.582 C 212.689 89.596, 212 91.555, 212 91.934 C 212 92.314, 211.156 94.396, 210.124 96.562 C 209.092 98.728, 207.493 103.548, 206.571 107.273 C 205.649 110.998, 204.244 115.892, 203.448 118.148 C 201.724 123.032, 201.658 124, 203.045 124 C 203.620 124, 205.139 125.013, 206.420 126.250 C 210.233 129.934, 212.961 132, 214.011 132 C 214.555 132, 215.015 132.338, 215.033 132.750 C 215.086 133.918, 223.554 143.001, 224.583 142.992 C 225.087 142.988, 225.987 141.975, 226.582 140.742 C 230.551 132.521, 235.151 125.517, 242.445 116.588 L 246.458 111.675 235.255 101.025 C 229.093 95.168, 222.028 88.923, 219.556 87.148 L 215.061 83.919 213.530 87.582 M 277.500 89.165 C 274.200 91.935, 267.588 98.058, 262.806 102.774 L 254.111 111.348 256.273 114.424 C 257.462 116.116, 259.018 118.101, 259.732 118.837 C 263.232 122.440, 267.788 129.741, 273.759 141.314 L 275.210 144.128 282.355 136.747 C 286.285 132.688, 291.257 127.937, 293.403 126.190 L 297.307 123.013 293.982 111.257 C 289.940 96.960, 285.543 84.658, 284.368 84.355 C 283.891 84.231, 280.800 86.396, 277.500 89.165 M 394 88 C 394 88.550, 392.200 89, 390 89 C 387.800 89, 386 89.450, 386 90 C 386 90.550, 384.452 91, 382.559 91 C 380.666 91, 378.840 91.450, 378.500 92 C 378.160 92.550, 376.777 93, 375.427 93 C 374.077 93, 372.191 93.404, 371.236 93.897 C 370.281 94.391, 366.125 95.822, 362 97.077 C 357.875 98.333, 354.072 99.729, 353.550 100.180 C 353.027 100.631, 351.891 101, 351.025 101 C 350.158 101, 346.827 102.286, 343.623 103.857 L 337.796 106.714 337.568 130.107 C 337.339 153.579, 336.504 164.570, 334.875 165.577 C 334.394 165.875, 334 167.865, 334 170 C 334 172.135, 333.550 174.160, 333 174.500 C 332.450 174.840, 332 175.998, 332 177.073 C 332 178.148, 331.596 179.809, 331.102 180.764 C 330.609 181.719, 328.285 186.454, 325.939 191.287 C 320.113 203.287, 307.807 216.748, 297.089 222.844 C 289.235 227.311, 287.750 228, 285.970 228 C 282.814 228, 283.699 229.686, 287.250 230.439 C 303.877 233.962, 323.778 232.448, 336 226.730 C 346.999 221.583, 361.174 208.911, 368.695 197.500 C 373.607 190.049, 380.153 176.592, 383.045 168 C 384.248 164.425, 385.631 161.073, 386.116 160.550 C 386.602 160.028, 387 158.142, 387 156.359 C 387 154.576, 387.450 152.840, 388 152.500 C 388.550 152.160, 389 150.424, 389 148.641 C 389 146.858, 389.404 144.972, 389.898 144.450 C 390.391 143.927, 391.049 141.700, 391.358 139.500 C 391.668 137.300, 392.412 132.800, 393.011 129.500 C 394.994 118.576, 396.127 108.632, 396.629 97.750 C 397.057 88.459, 396.913 87, 395.562 87 C 394.703 87, 394 87.450, 394 88 M 103.466 94.250 C 103.864 97.138, 104.601 103.325, 105.102 108 C 106.814 123.951, 108.661 135.573, 110.983 145 C 111.593 147.475, 112.462 151.075, 112.915 153 C 114.164 158.304, 118.860 171.932, 121.186 177 C 130.416 197.114, 135.145 204.211, 146.176 214.500 C 158.479 225.976, 170.063 231.121, 188.094 233.119 C 197.302 234.139, 199.965 234.062, 208.447 232.535 C 219.010 230.633, 219.508 229.741, 211.500 227.057 C 209.300 226.320, 205.619 224.431, 203.320 222.858 C 201.021 221.286, 198.758 220, 198.291 220 C 196.990 220, 184.727 207.951, 182.007 204 C 180.681 202.075, 179.255 200.260, 178.838 199.966 C 177.648 199.127, 170 183.882, 170 182.348 C 170 181.011, 169.558 179.910, 167.156 175.264 C 166.520 174.034, 166 171.473, 166 169.573 C 166 167.673, 165.614 165.879, 165.141 165.587 C 163.479 164.560, 162.582 152.264, 162.541 129.932 L 162.500 107.365 158 105.241 C 153.072 102.914, 127.595 94.211, 122 92.943 C 120.075 92.507, 115.800 91.457, 112.500 90.611 C 102.706 88.098, 102.623 88.131, 103.466 94.250 M 324.218 112.542 C 320.763 114.305, 317.163 116.411, 316.218 117.222 C 315.273 118.033, 313.825 118.943, 313 119.244 C 312.175 119.546, 309.668 121.134, 307.428 122.774 L 303.356 125.755 304.090 132.627 C 305.969 150.226, 304.554 169.271, 300.535 180.500 C 298.353 186.595, 293.872 196.238, 292.868 197 C 292.506 197.275, 291.972 199.975, 291.682 203 C 290.914 211.019, 289.937 215.051, 287.869 218.732 C 285.866 222.299, 286.039 222.556, 289.316 220.887 C 301.388 214.735, 313.784 202.844, 320.225 191.237 C 324.974 182.679, 330.153 166.097, 331.700 154.500 C 332.862 145.785, 332.706 111.282, 331.500 110.218 C 330.899 109.688, 327.993 110.616, 324.218 112.542 M 167.482 119.397 C 166.733 129.395, 167.367 147.589, 168.811 157.500 C 170.878 171.693, 176.650 186.817, 184.170 197.747 C 188.525 204.077, 197.055 212.334, 203.494 216.453 C 211.016 221.265, 212.448 221.157, 209.500 216 C 208.714 214.625, 208.055 212.202, 208.035 210.616 C 207.988 206.737, 206.009 200.067, 203.996 197 C 198.517 188.652, 194.532 174.632, 193.623 160.500 C 193.168 153.429, 194.286 135.239, 195.544 129.252 C 196.332 125.503, 194.424 123.356, 187.311 119.988 C 185.006 118.898, 182.851 117.569, 182.522 117.035 C 181.974 116.148, 169.894 110, 168.700 110 C 168.418 110, 167.870 114.229, 167.482 119.397 M 245.849 121.750 C 235.404 135.679, 229.256 146.260, 227.111 154 C 226.426 156.475, 225.445 159.882, 224.932 161.571 C 223.502 166.283, 223.825 180.885, 225.506 187.540 C 227.942 197.183, 235.187 210.742, 242.452 219.257 C 246.086 223.516, 249.400 227, 249.817 227 C 250.915 227, 259.287 218.102, 262.048 214 C 263.343 212.075, 264.692 210.275, 265.045 210 C 266.463 208.894, 273.311 193.835, 274.227 189.807 C 275.847 182.685, 276.319 166.051, 275.030 161.566 C 271.492 149.265, 269.541 144.477, 265.554 138.315 C 259.680 129.236, 250.757 117, 250.010 117 C 249.680 117, 247.808 119.138, 245.849 121.750 M 200.551 132.250 C 200.175 133.488, 199.612 140.888, 199.298 148.695 C 198.798 161.157, 199.003 164.078, 200.979 172.629 C 202.216 177.986, 204.178 184.423, 205.337 186.934 L 207.445 191.500 207.785 187 C 207.973 184.525, 208.548 182.073, 209.063 181.550 C 209.578 181.028, 210 179.592, 210 178.359 C 210 177.126, 210.450 175.840, 211 175.500 C 211.550 175.160, 212 173.777, 212 172.427 C 212 171.077, 212.397 169.191, 212.883 168.236 C 213.369 167.281, 214.210 165.375, 214.752 164 C 215.293 162.625, 217.146 158.624, 218.869 155.109 L 222 148.718 212.641 139.359 C 207.494 134.212, 202.821 130, 202.258 130 C 201.694 130, 200.926 131.012, 200.551 132.250 M 294.703 132.531 C 293.715 133.889, 292.457 135, 291.908 135 C 290.290 135, 279 147.743, 279 149.569 C 279 149.971, 280.172 152.821, 281.605 155.900 C 283.037 158.980, 284.665 162.625, 285.221 164 C 285.778 165.375, 286.631 167.281, 287.117 168.236 C 287.603 169.191, 288 171.077, 288 172.427 C 288 173.777, 288.398 175.128, 288.885 175.429 C 289.371 175.729, 290.074 178.006, 290.446 180.488 C 291.541 187.789, 293.179 185.997, 296.380 174 C 299.144 163.637, 300.024 146.051, 298.369 134.250 C 297.683 129.360, 297.182 129.125, 294.703 132.531 M 215.836 177 C 214.921 180.025, 213.607 186.467, 212.916 191.315 C 211.384 202.059, 212.691 210.544, 217.202 219.140 C 220.912 226.211, 223.808 228.954, 232 233.162 C 238.217 236.354, 238.979 236.499, 249.500 236.484 C 259.882 236.468, 260.841 236.290, 266.577 233.306 C 282.325 225.116, 288.667 210.706, 286.078 189 C 285.521 184.325, 284.503 178.700, 283.818 176.500 L 282.572 172.500 281.879 178.500 C 280.649 189.150, 275.905 204.452, 273.043 207 C 272.734 207.275, 271.654 209.078, 270.645 211.006 C 268.199 215.675, 252.802 233.414, 250.873 233.786 C 247.729 234.391, 234.019 219.105, 227.299 207.500 C 222.490 199.197, 218.325 185.255, 217.740 175.500 L 217.500 171.500 215.836 177 M 17.299 270.960 C 10.921 274.848, 10.900 275.003, 11.215 316.499 L 11.500 353.964 14.702 357.164 C 17.409 359.871, 18.803 360.430, 23.720 360.786 C 28.354 361.121, 30.261 360.778, 33.109 359.098 C 38.280 356.047, 39.163 352.310, 38.802 335 L 38.500 320.500 31.406 320.209 C 25.975 319.987, 24.013 320.280, 23.034 321.459 C 20.776 324.180, 23.300 325.774, 29.001 325.226 L 34 324.746 34 336.808 C 34 343.442, 33.573 349.992, 33.052 351.363 C 32.531 352.735, 30.556 354.591, 28.664 355.489 C 25.446 357.016, 24.979 357.005, 21.418 355.311 C 18.564 353.953, 17.395 352.657, 16.747 350.132 C 16.271 348.280, 16.021 331.266, 16.191 312.324 L 16.500 277.884 19 275.964 C 20.375 274.908, 23.075 274.044, 25 274.044 C 29.995 274.044, 33.022 276.745, 33.701 281.807 C 34.182 285.392, 34.606 286, 36.632 286 C 38.678 286, 39 285.517, 39 282.450 C 39 274.664, 33.109 269.007, 25 269.007 C 22.297 269.007, 19.222 269.787, 17.299 270.960 M 263.008 270.986 C 262.302 272.305, 261.996 277.357, 262.190 284.504 L 262.500 295.917 260 295.223 C 255.209 293.894, 247.042 294.652, 244.858 296.629 C 240.269 300.781, 240 302.542, 240 328.416 L 240 352.930 242.996 356.343 C 246.958 360.855, 252.764 362.416, 258.387 360.479 C 261.161 359.523, 262.639 359.417, 263.087 360.141 C 263.446 360.721, 264.586 361.034, 265.620 360.835 C 267.427 360.487, 267.500 358.712, 267.500 315 C 267.500 273.182, 267.365 269.501, 265.817 269.203 C 264.892 269.025, 263.628 269.827, 263.008 270.986 M 387.500 270.216 C 381.041 273.945, 381 274.235, 381.001 315.736 C 381.002 353.456, 381.005 353.503, 383.251 356.093 C 386.491 359.828, 389.227 361.001, 394.684 360.993 C 402.266 360.983, 407.070 357.024, 408.418 349.674 C 409.272 345.017, 407.746 342.530, 404.952 344.026 C 403.707 344.692, 403.016 346.377, 402.807 349.253 C 402.533 353.043, 402.107 353.681, 398.823 355.222 C 395.814 356.633, 394.542 356.744, 391.823 355.828 C 385.694 353.765, 386 355.885, 386 315.552 L 386 278.349 388.314 276.174 C 389.900 274.684, 391.897 274, 394.659 274 C 399.529 274, 402.052 276.368, 402.920 281.753 C 403.430 284.921, 403.950 285.549, 406.285 285.819 C 409.007 286.133, 409.036 286.077, 408.386 281.819 C 406.978 272.607, 402.983 268.976, 394.316 269.030 C 391.667 269.047, 388.600 269.580, 387.500 270.216 M 413.667 269.667 C 413.300 270.033, 413 290.522, 413 315.198 C 413 355.011, 413.176 360.130, 414.567 360.664 C 415.429 360.995, 416.560 360.840, 417.079 360.321 C 417.794 359.606, 418.397 302.252, 418.021 270.750 C 418 269.033, 415.037 268.296, 413.667 269.667 M 462 314.462 C 462 354.244, 462.193 360.137, 463.513 360.643 C 464.345 360.963, 465.666 360.692, 466.449 360.042 C 467.483 359.184, 468.418 359.154, 469.870 359.931 C 470.969 360.519, 474.132 361, 476.899 361 C 481.063 361, 482.519 360.483, 485.346 358.001 C 490.194 353.744, 491.002 349.274, 490.985 326.807 C 490.969 305.826, 490.247 301.792, 485.693 297.239 C 483.414 294.960, 482.252 294.625, 476.618 294.625 C 472.823 294.625, 469.517 295.156, 468.607 295.911 C 467.223 297.060, 467.028 295.723, 466.779 283.348 C 466.507 269.845, 466.444 269.492, 464.250 269.180 L 462 268.861 462 314.462 M 138.512 271.108 C 138.219 271.873, 138.096 292.300, 138.239 316.500 L 138.500 360.500 140.943 360.500 L 143.387 360.500 143.443 348 C 143.500 335.501, 143.500 335.500, 145.891 335.500 C 147.206 335.500, 148.657 336.175, 149.115 337 C 149.574 337.825, 152.660 343.123, 155.974 348.774 C 159.288 354.424, 162 359.518, 162 360.093 C 162 361.910, 166.463 360.587, 166.830 358.661 C 167.023 357.649, 166.314 355.849, 165.255 354.661 C 164.196 353.472, 162.569 350.833, 161.640 348.797 C 160.711 346.760, 159.382 344.510, 158.687 343.797 C 157.566 342.646, 154 335.810, 154 334.812 C 154 334.599, 155.443 334.315, 157.206 334.181 C 158.970 334.047, 161.266 333.165, 162.309 332.221 C 166.685 328.260, 167 326.213, 167 301.716 L 167 278.333 163.748 274.572 L 160.497 270.810 149.772 270.263 C 141.156 269.823, 138.942 269.989, 138.512 271.108 M 47.250 273.667 C 46.487 273.972, 46 276.083, 46 279.083 C 46 283.688, 46.162 284, 48.552 284 C 50.999 284, 51.092 283.785, 50.802 278.829 C 50.506 273.758, 49.754 272.665, 47.250 273.667 M 64 274.500 C 63.143 275.533, 62.796 279.068, 62.925 285.449 L 63.115 294.872 59.307 295.186 C 56.237 295.439, 55.438 295.935, 55.180 297.750 C 54.894 299.767, 55.282 300, 58.930 300 L 63 300 63 325.040 C 63 348.345, 63.143 350.359, 65.059 354.115 C 66.418 356.780, 68.276 358.635, 70.527 359.576 C 74.475 361.225, 78.616 361.431, 79.487 360.021 C 80.651 358.137, 77.999 355.001, 75.215 354.968 C 73.722 354.951, 71.600 354.257, 70.500 353.426 C 68.605 351.996, 68.484 350.552, 68.189 326.010 L 67.878 300.103 73.689 299.802 C 78.845 299.534, 79.536 299.247, 79.820 297.250 C 80.121 295.129, 79.792 295, 74.070 295 L 68 295 68 285.122 C 68 277.988, 67.620 274.930, 66.633 274.110 C 65.592 273.247, 64.963 273.340, 64 274.500 M 276.422 274.978 C 275.883 275.517, 275.618 277.791, 275.832 280.034 C 276.165 283.533, 276.524 284.067, 278.360 283.805 C 280.060 283.563, 280.566 282.699, 280.819 279.602 C 281.196 274.998, 278.859 272.541, 276.422 274.978 M 143 302.513 L 143 330.289 150.743 329.703 C 162.330 328.827, 162 329.625, 162 302.500 C 162 275.283, 162.287 275.975, 150.678 275.230 L 143 274.737 143 302.513 M 47.250 294.662 C 46.285 295.051, 46 302.700, 46 328.153 L 46 361.139 48.250 360.820 L 50.500 360.500 50.763 327.250 C 51.035 292.945, 51.055 293.127, 47.250 294.662 M 91.675 294.682 C 86.164 295.590, 82 301.620, 82 308.692 C 82 311.695, 82.290 312.098, 84.250 311.820 C 86.013 311.569, 86.572 310.744, 86.832 308.004 C 87.211 304.007, 88.315 302.398, 92.381 299.919 C 95.401 298.078, 98.373 298.624, 102.093 301.707 C 104.026 303.307, 106.321 312.359, 105.845 316.500 C 105.509 319.425, 105.331 319.517, 98.747 320.168 C 85.032 321.524, 82 325.181, 82 340.366 C 82 351.517, 83.646 356.769, 87.934 359.302 C 91.432 361.368, 99.874 361.544, 102.525 359.605 C 104.170 358.402, 104.586 358.419, 105.543 359.728 C 106.212 360.642, 107.417 361.003, 108.576 360.635 C 110.419 360.051, 110.488 358.942, 110.209 334.263 C 109.911 307.836, 109.644 304.136, 107.759 300.257 C 105.617 295.849, 98.843 293.501, 91.675 294.682 M 180.091 294.844 C 178.766 295.231, 176.291 297.265, 174.591 299.365 L 171.500 303.183 171.500 326.841 C 171.500 353.066, 171.862 355.010, 177.454 358.833 C 181.571 361.648, 188.851 361.983, 192.596 359.529 C 196.408 357.032, 198.992 352.045, 198.996 347.180 C 199 343.272, 198.786 342.891, 196.750 343.180 C 195.049 343.422, 194.356 344.355, 193.910 347 C 192.743 353.932, 192.054 354.869, 187.645 355.528 C 178.118 356.950, 176.203 353.705, 175.918 335.645 L 175.747 324.791 186.791 324.645 C 192.865 324.565, 198.147 324.187, 198.530 323.804 C 199.630 322.703, 199.252 306.294, 198.043 302.630 C 197.441 300.808, 195.889 298.395, 194.594 297.269 C 192.024 295.034, 184.023 293.696, 180.091 294.844 M 214.500 294.688 C 211.010 295.237, 207.564 298.163, 205.474 302.352 C 203.062 307.187, 203.823 312, 207 312 C 209.031 312, 210 310.086, 210 306.073 C 210 303.346, 211.405 301.668, 215.693 299.277 C 217.460 298.292, 218.572 298.341, 221.419 299.531 C 226.130 301.499, 228 305.416, 228 313.316 L 228 319.731 221.081 320.226 C 207.958 321.165, 204.186 325.468, 204.073 339.628 C 203.989 350.113, 205.369 354.450, 210.040 358.380 C 213.564 361.345, 220.582 361.957, 225 359.685 C 227.092 358.608, 227.680 358.637, 228.605 359.862 C 229.249 360.714, 230.421 361.052, 231.413 360.672 C 232.970 360.074, 233.088 357.616, 232.807 331.759 C 232.479 301.673, 232.170 299.652, 227.416 296.537 C 224.823 294.838, 218.919 293.993, 214.500 294.688 M 276.454 295.259 C 276.189 295.951, 276.090 310.913, 276.236 328.509 C 276.494 359.745, 276.547 360.500, 278.500 360.500 C 280.453 360.500, 280.506 359.745, 280.764 328.068 C 280.970 302.787, 280.749 295.459, 279.764 294.833 C 277.964 293.690, 277.009 293.813, 276.454 295.259 M 288.607 295.582 C 287.659 298.051, 287.925 358.334, 288.890 359.857 C 289.430 360.708, 290.542 360.963, 291.875 360.540 C 293.972 359.874, 294 359.511, 294 333.132 C 294 303.961, 294.295 302.168, 299.491 299.727 C 301.975 298.560, 303.035 298.535, 305.568 299.585 C 311.513 302.050, 311.473 301.843, 311.807 331.902 C 311.976 347.081, 312.463 359.852, 312.890 360.283 C 313.316 360.713, 314.451 360.764, 315.412 360.395 C 317.028 359.775, 317.134 357.594, 316.829 331.113 C 316.470 299.906, 316.326 299.118, 310.405 295.949 C 307.408 294.345, 297.631 294.231, 295.767 295.779 C 294.857 296.533, 293.942 296.430, 292.556 295.417 C 290.075 293.603, 289.355 293.633, 288.607 295.582 M 333.542 294.729 C 330.006 295.628, 327.201 298.058, 325.372 301.809 C 323.889 304.850, 323.503 308.775, 323.181 324.087 C 322.698 347.078, 323.684 353.023, 328.779 357.828 C 332.072 360.934, 332.697 361.135, 337.907 360.771 C 340.983 360.555, 344.288 360.021, 345.250 359.583 C 346.836 358.861, 347 359.523, 346.996 366.643 C 346.993 372.711, 346.541 375.240, 345.011 377.750 C 343.215 380.695, 342.582 380.997, 338.265 380.968 C 333.192 380.934, 330 379.286, 330 376.699 C 330 375.829, 329.528 374.827, 328.952 374.470 C 328.376 374.114, 328.038 372.861, 328.202 371.686 C 328.401 370.257, 327.885 369.427, 326.644 369.181 C 323.406 368.538, 322.589 370.459, 323.982 375.437 C 325.596 381.200, 328.362 384.158, 333.809 385.945 C 340.549 388.157, 347.232 385.251, 350.507 378.685 C 352.761 374.168, 352.742 295.222, 350.487 294.357 C 349.655 294.037, 348.402 294.251, 347.703 294.831 C 346.858 295.532, 345.100 295.578, 342.466 294.967 C 338.228 293.985, 336.640 293.942, 333.542 294.729 M 427.166 294.877 C 425.312 296.051, 425.927 350.235, 427.838 354.018 C 430.864 360.010, 441.588 363.216, 446.525 359.605 C 448.181 358.394, 448.595 358.427, 449.658 359.855 C 450.618 361.145, 451.273 361.261, 452.691 360.391 C 454.362 359.368, 454.521 356.962, 454.780 328.891 C 454.934 312.176, 454.805 297.458, 454.495 296.185 C 454.080 294.489, 453.337 293.954, 451.715 294.185 C 449.501 294.500, 449.500 294.515, 449 323 C 448.725 338.675, 448.131 352.243, 447.681 353.152 C 446.698 355.132, 440.966 356.371, 436.908 355.480 C 431.823 354.363, 431.541 352.794, 431 322.582 C 430.690 305.293, 430.119 294.544, 429.500 294.348 C 428.950 294.175, 427.900 294.413, 427.166 294.877 M 181.020 300.134 C 177.125 302.503, 176 305.512, 176 313.565 L 176 320 185 320 L 194 320 193.965 312.750 C 193.922 304.100, 192.534 301.170, 187.691 299.505 C 184.555 298.427, 183.694 298.508, 181.020 300.134 M 249.655 299.904 C 244.979 302.527, 244.021 307.194, 244.096 327 C 244.170 346.867, 245.222 352.811, 249 354.712 C 252.667 356.558, 256.379 356.276, 259.365 353.927 L 262 351.855 262 328.038 C 262 306.832, 261.808 303.989, 260.250 302.097 C 257.628 298.914, 253.093 297.975, 249.655 299.904 M 333.218 300.014 C 328.955 302.606, 327.987 307.914, 328.077 328.193 C 328.185 352.566, 329.917 356.744, 339.443 355.608 C 346.647 354.750, 346.953 353.649, 346.974 328.500 C 346.991 308.823, 346.797 306.179, 345.140 303.462 C 342.522 299.169, 337.158 297.617, 333.218 300.014 M 472.747 299.758 C 467.538 302.320, 466.995 304.941, 467.056 327.200 C 467.126 352.341, 467.584 354.130, 474.280 355.423 C 478.407 356.220, 479.430 356.069, 481.780 354.316 L 484.500 352.286 484.768 328.635 C 485.066 302.358, 484.823 301.175, 478.744 299.367 C 476.378 298.664, 474.755 298.770, 472.747 299.758 M 95.960 325.318 C 93.507 325.793, 90.487 327.120, 89.250 328.266 C 87.200 330.164, 87.002 331.244, 87.022 340.424 C 87.046 351.310, 87.804 353.239, 93.090 355.875 C 95.304 356.979, 96.229 356.900, 99.463 355.333 C 104.707 352.792, 106.156 348.094, 105.785 334.843 C 105.502 324.725, 105.487 324.670, 102.960 324.562 C 101.564 324.502, 98.414 324.842, 95.960 325.318 M 218.337 325.434 C 210.867 327.347, 210 328.885, 210 340.221 C 210 351.223, 210.676 353.264, 215.074 355.538 C 217.615 356.852, 218.637 356.899, 221.577 355.836 C 226.938 353.897, 228 350.704, 228 336.513 L 228 324.333 225.250 324.351 C 223.738 324.360, 220.627 324.848, 218.337 325.434" stroke="none" fill="#249cac" fill-rule="evenodd"/></svg>