<?xml version="1.0"?>
<svg version="1.1" xmlns="http://www.w3.org/2000/svg" width="800px" height="200px" style=""><path fill="#e4f500" d="M54.8,111.3l-0.2,3.2q0,6.5,7,6.5q5.8,0,11.7-4t5.9-8.1t-4.8-6.9q-3.2-1.9-10-1.9q-10.1,0-22.55,4.8t-23.35,15.4q-14.3,14-14.3,25.7q0,6.9,5.25,11.1t13.75,4.2q11.8,0,27.4-8.9q13-7.3,19.5-15.5l2.9-4.3q-1.8,0-14.9,1.05t-15,1.5t-3.1,0.45q-3.3,0-3.3-1.6q0-2.5,7.6-4.15t25.7-1.65t23.9,1.4q0.9,0.2,0.9,0.5q0,1.1-6.9,1.6q-8.6,0.7-8.8,0.7q-10.2,13.4-26.4,41.4q-0.9,1.6-1.75,1.6t-0.85-1.3q0-3.5,5.6-13.5l7-13.1q-6.4,5.5-16.3,10.3q-12.9,6.1-24.35,6.1t-17.5-4.95t-6.05-13.25q0-15.3,18.5-31.1q9.3-8,22.5-13.3t23.15-5.3t15.25,3.9q4.1,3.2,4.1,7.2q0,5.7-7.05,10.95t-13.95,5.25q-9.3,0-9.3-10.7q0-4.1,1.7-4.1q1.4,0,1.4,2.8z M111.767,120.15q1.35,0.95,1.35,2.25t-1.25,2.25t-2.75,0.95t-2.75-1.1t-1.25-2.5q0-2.8,3.8-2.8q1.5,0,2.85,0.95z M90.817,161.1q-5.1,0-5.1-6.6q0-5.4,5.9-14.95t9.5-9.65q1,0,2.25,0.8t1.25,1.6q-0.5,0.7-1.2,1.55t-1.5,1.85t-2.2,2.85t-2.7,3.55q-7.5,9.7-7.5,13.35t2.5,3.65q2.1,0,5.7-2.3q8.4-5.2,13.3-11.4q1.8-2.3,2.45-2.3t0.65,0.8t-2.3,3.2t-3.65,3.8t-1.85,1.85t-1.85,1.7t-2.05,1.75t-2,1.5t-2.3,1.45t-2.3,1.05q-2.1,0.9-5,0.9z M140.334,127.8l14.4-0.2q0.3,0.2,0.3,0.3q0,0.9-12.45,2.5t-13.45,1.9q-1.9,1.7-7,10.15t-5.1,12.35q0,3.7,5.1,3.7q2.4,0,6.3-1.5t6-2.8q5.6-3.5,12-10.3q1.4-1.4,1.9-1.4q0.3,0,0.3,0.6t-1.5,2.4q-5.2,6.4-11.7,10.3q-7.8,4.8-14.9,4.8q-3.1,0-5.05-1.35t-1.95-5.45t3.6-11.25t5.5-10.65q-1.4,0.3-2.4,0.3q-2.9,0-2.9-2.3q0-1.7,2.4-2.4q0.3,0,0.9-0.1l5.8,0q1.8-2.3,4.1-5.3q2.8-3.6,3.8-3.6t2.5,0.8t1.5,1.9t-4.8,6.5q2.6,0.1,6.8,0.1z M181.551,130.1l1.4-0.3q1.1,0,2.1,0.9t1,1.4t-6.2,9.65t-6.2,12.75q0,0.3,0.1,0.6q0.5,2.3,2.2,2.3q5.2,0,19-17.2q0.3-0.4,0.7-0.4t0.4,0.75t-0.9,1.95q-12.8,17.1-19.5,17.1q-0.9,0-1.7-0.3q-4.4-1.7-4.4-6.6q0-1.7,0.4-3.4l-6.2,6q-5.9,5.2-8.55,5.2t-5.05-1.7q-2.7-2-2.7-5.3q0-7.3,10.2-17.45t18.7-10.15q3.3,0,4.4,2.3q0.3,0.8,0.5,1.35t0.3,0.55z M151.651,154.7q0,3.6,2.5,3.6q5.8,0,15.8-12.7l10.6-14.6q-0.8-1.4-2.6-1.4q-6.1,0-16.2,9.45t-10.1,15.65z M275.385,133q-5,0-9.3-0.8q1.4,4.4,5.9,19.9q1.4,4.5,4.4,9.1q4.1,5.9,7.6,5.9q4.2,0,7-8.5q0.5-2,1.05-2t0.8,1.15t0.25,1.55q0,2.5-2.8,6.4q-3.7,5.5-8.1,5.5t-8.1-4.4t-7.25-16.05t-3.55-14.85q0-0.5,0.1-0.8q-12,15.9-17.2,21q-11.6,11.3-23.7,11.3q-8.5,0-8.5-6.4q0-3.2,2-7.05t4.9-6.75t5.1-2.9q0.4,0,0.4,0.2q0,0.5-2.5,2.5t-4.8,5.65t-2.3,6.65q0,5.3,7.1,5.3q13.3,0,36.6-31.2q1.3-1.7,2.2-2.4l-1.6-0.6q-1.3,0.5-2.1,0.5q-2.1,0-2.1-1.7q0-2.3,3.1-3q0.4-0.1,0.7-0.1q1.8,0,4.2,1.8q8.8-9.8,9-10q7.3-7.5,9.85-7.5t2.55,2.2q0,1-0.45,1.9t-1.05,0.9q-0.6,0.2-0.6-0.6q0-0.4,0.6-1.2q0.1-1.4-0.9-1.4q-3.2,0-15.5,17q3,0.2,5,0.2q23.2,0,29-12q1.2-2.6,1.2-4.8q0-4.4-4-7.6q-6.4-5.2-20.8-5.2t-29.4,7.3q-18.2,8.9-18.2,20.9q0,3.9,4.9,3.9t10.4-3.6t7.4-7.1q0.7-1.3,1.35-1.3t0.35,0.8q-1.9,5.6-8.45,9.55t-13.65,3.95t-7.1-4.5l0-0.7q1.5-13.1,16.05-22.25t35.05-9.15q19.1,0,27.1,6.6q4.8,4,4.8,9.4q0,2.3-1.1,5q-3.1,7.3-12.7,10.85t-20.2,3.55z M302.902,161.3q-1.1,0-2-0.3q-6.4-1.8-6.4-7.2q0-7,8.8-16.2t15.8-9.2q2.3,0,3.75,1.25t1.45,3.05q0,5.6-8.45,10.7t-13.75,5.1q-0.8,0-1.4-0.2q-1.5,2.7-1.5,5.7q0,5.2,4.95,5.2t12.85-6.7q6.1-4.9,10.4-10.4q0.9-1.2,1.55-1.2t0.65,0.6t-0.8,1.7q-5.4,7.1-13,12.6t-12.9,5.5z M321.802,132.5q0-1.2-2.55-1.2t-7.25,3.9q-6.3,5.2-9.8,10.9q0.6,0.2,1.3,0.2q3.8,0,10.15-4.05t7.95-8.85q0.2-0.5,0.2-0.9z M361.119,130.1l1.4-0.3q1.1,0,2.1,0.9t1,1.4t-6.2,9.65t-6.2,12.75q0,0.3,0.1,0.6q0.5,2.3,2.2,2.3q5.2,0,19-17.2q0.3-0.4,0.7-0.4t0.4,0.75t-0.9,1.95q-12.8,17.1-19.5,17.1q-0.9,0-1.7-0.3q-4.4-1.7-4.4-6.6q0-1.7,0.4-3.4l-6.2,6q-5.9,5.2-8.55,5.2t-5.05-1.7q-2.7-2-2.7-5.3q0-7.3,10.2-17.45t18.7-10.15q3.3,0,4.4,2.3q0.3,0.8,0.5,1.35t0.3,0.55z M331.219,154.7q0,3.6,2.5,3.6q5.8,0,15.8-12.7l10.6-14.6q-0.8-1.4-2.6-1.4q-6.1,0-16.2,9.45t-10.1,15.65z M406.336,129.7q11.2-18.2,15.6-18.2q0.7,0,1.95,0.45t1.25,1.35q0,0.5-0.5,1.3q-8,9.8-11.9,14.7q-11.8,14.9-13,21.4q-0.3,1.4-0.3,2.8q0,4.5,3.7,4.5q7.4,0,19.3-13.7q1-1,1.7-1.15t0.7,0.35t-0.6,1.2q-11.6,13.9-20.6,15.5q-0.5,0.1-1.4,0.1q-3.1,0-4.65-2.15t-1.55-4.65q0-2.8,1.1-6.2l-8.1,8.1q-5.5,5.1-8.65,5.1t-5.25-1.7q-2.5-1.9-2.5-5.3q0-7.3,10.2-17.45t18.7-10.15q2.8,0,3.9,1.5q0.4,0.5,0.9,2.3z M376.836,154.7q0,3.6,2.5,3.6q4.3,0,14.3-11.8q1.8-2.1,12-15.7q-0.7-1.2-2.4-1.2q-6.2,0-16.3,9.45t-10.1,15.65z M449.203,120.15q1.35,0.95,1.35,2.25t-1.25,2.25t-2.75,0.95t-2.75-1.1t-1.25-2.5q0-2.8,3.8-2.8q1.5,0,2.85,0.95z M428.253,161.1q-5.1,0-5.1-6.6q0-5.4,5.9-14.95t9.5-9.65q1,0,2.25,0.8t1.25,1.6q-0.5,0.7-1.2,1.55t-1.5,1.85t-2.2,2.85t-2.7,3.55q-7.5,9.7-7.5,13.35t2.5,3.65q2.1,0,5.7-2.3q8.4-5.2,13.3-11.4q1.8-2.3,2.45-2.3t0.65,0.8t-2.3,3.2t-3.65,3.8t-1.85,1.85t-1.85,1.7t-2.05,1.75t-2,1.5t-2.3,1.45t-2.3,1.05q-2.1,0.9-5,0.9z M467.77,128.4q2.7,0,2.7,2.1q0,0.6-0.3,1.2q-9,12.5-10.8,18.9q23.3-23.3,28.3-23.3q0.5-0.1,0.9-0.1q2.8,0,2.8,2.5q0,0.5-0.2,1t-4,5.4q-4.4,5.2-7.45,10t-3.05,8t1.4,3.2q4.4,0,15.3-12.1q0.2-0.2,0.7-0.9q1.5-1.8,1.8-1.8t0.3,1t-1.4,2.6q-12.4,14.1-17.6,14.1q-4.9,0-4.9-5.4t4-12.4l6.4-10.4q-6.8,5-12.1,10.95t-9.65,11.55t-5.05,5.6q-1.5,0-2.35-1.25t-0.85-3.1t1.3-4.95t3.3-7.5l-6,6.3q-2.2,2.2-2.75,2.2t-0.55-0.65t0.8-1.45q3.7-3.7,6.4-7.1q2.6-3.4,10.7-13q0.9-1.2,1.9-1.2z M529.787,129.5l1.4-0.3q1.3,0,2.05,0.8t0.75,1.25t-0.1,1t-2.9,5.05q-3.5,6.1-5.8,10.3q-8.1,15.1-12.4,20.7q-9.2,12.2-17.5,12.2q-2.9,0-5.05-2.45t-2.25-5.45q0.3-1.2,0.9-1.2q0.3,0,0.5,0.7q0.5,2.6,1.9,4t2.8,1.4q5.7,0,12.2-7.5q4.3-5,9.5-14.6l5-9.9l-7.5,7.6q-7.2,6.9-9.85,6.9t-5.05-1.8q-2.7-2-2.7-5.3q0-7.3,10.25-17.4t18.65-10.1q3.4,0,4.4,2.2q0.3,0.8,0.5,1.35t0.3,0.55z M499.887,154.1q0,3.6,2.5,3.6q5.8,0,15.8-12.7l10.6-14.6q-0.6-1.4-2.5-1.4q-6.2,0-16.3,9.55t-10.1,15.55z M616.121,132.2q-6,0-10.1-2.75t-4.1-6.95q0-5.3,6.9-10.6q1.2-0.9,1.8-0.9t0.6,0.4q0,1-1.6,1.6q-5.6,4.5-5.6,9.1q0,3.3,3,5.55t7.5,2.25q9.8,0,18.5-9.4q4.5-4.9,4.5-11.3t-4.8-9.5q-4-2.8-10.8-2.8q-9.8,0-19.7,4.9q-12.2,5.9-22.05,18.35t-9.85,23.95q0,9.1,6.2,14.05t15.4,4.95q10.5,0,20.6-5.1q7.7-4,13.3-10.2q1.6-1.8,2.5-1.8q0.6,0,0.6,1.05t-1.1,2.15q-5.3,5.6-15.3,10.8q-12.3,6.5-24.75,6.5t-18.55-8.2q-4.1-5.4-4.1-12.9q0-3.3,0.8-7.1q2.7-12.8,14.2-24.9q8.3-8.7,19.7-13.55t21.6-4.85q5.4,0,9.4,1.3q10.9,3.4,10.9,13.7q0,6.3-3.7,10.9q-9.2,11.3-21.9,11.3z M646.238,158q3.3,0,8.5-3.5t10.1-9.5q1.2-1.6,1.9-1.6t0.7,0.6t-4.1,5.2q-10,11-16.7,11q-3.3,0-5.6-1.55t-2.3-4.8t1.7-7.55q2.9-6.8,9.3-17.1q11.7-19,16.6-19q1,0,2.05,0.75t1.15,1.65q-2.3,3.1-8.85,11.9t-9.05,12.65t-3.75,5.75t-1.85,2.95t-1.4,2.75q-1.7,3.4-1.7,6.4t3.3,3z M695.755,160.6q-0.5,0.1-2.15,0.1t-3.3-1.3t-1.65-3.35t0.75-4.55t1.05-3.8q-11.5,13.4-18,13.4q-4.1,0-4.5-5.1l0-0.7q0-4.3,5.2-11.6q-2.9,2.6-5.9,6q-0.4,0.4-1,0.4q-0.4,0-0.4-0.5t0.9-1.7l13.8-16.2q2.6-3,5.3-3t2.7,1.8q0,0.7-0.6,1.3q-4,3.7-10.05,12.3t-6.05,12.7q0,1.8,1.2,1.8q4.2,0,12.2-8.3q2.8-2.8,10.4-12.35t10-9.55q3.6,0,3.6,2.8q0,1-4.2,5.8q-5.7,6.9-8.7,11.25t-3,7.05t1.5,2.7q0.7,0,1.6-0.4q6.9-3,16.5-14q0.6-0.7,1.2-0.7t0.6,0.65t-0.7,1.45q-4.3,5-10.1,10.05t-8.2,5.55z M737.472,135.1q0-6.8,4.2-6.8q0.4,0,0.9,0.1q1.7,0.3,1.7,2.6t-0.8,5.8q-0.8,2.6-1.1,3.9q0.3,1.7,1.65,4.35t3.7,2.65t5.25-3.2q0.6-0.7,1.15-0.7t0.6,0.65t-0.75,1.75q-3.1,3.7-6.5,3.7q-4.9,0-7.9-7.2q-3.1,7.1-8.8,12.25t-11.3,5.15q-5.3,0-5.3-8q0-6.3,11.75-23.2t17.95-16.9q1.3,0,2.35,0.8t1.05,1.9q0-0.1-1.45,1.5t-7.9,8.6t-12.65,15.4t-6.2,13q0,1.2,0.65,2.6t2.15,1.4q4.4,0,10.3-6.8q4.9-6,6-10.1q-0.7-2.1-0.7-5.2z"/><path fill="#" d=""/></svg>
